<svg width="512" height="512" viewBox="0 0 512 512" fill="none" xmlns="http://www.w3.org/2000/svg">
  <defs>
    <linearGradient id="gradient" x1="0%" y1="0%" x2="100%" y2="100%">
      <stop offset="0%" style="stop-color:#4F46E5;stop-opacity:1" />
      <stop offset="100%" style="stop-color:#7C3AED;stop-opacity:1" />
    </linearGradient>
  </defs>
  <rect width="512" height="512" rx="100" fill="url(#gradient)" />
  <path d="M150 256C150 220 180 200 200 200C220 200 240 220 256 240C272 260 292 280 312 280C332 280 362 260 362 224C362 188 332 168 312 168C292 168 272 188 256 208C240 188 220 168 200 168C180 168 150 188 150 224Z" stroke="white" stroke-width="30" stroke-linecap="round" stroke-linejoin="round"/>
  <path d="M256 300L256 400" stroke="white" stroke-width="30" stroke-linecap="round" stroke-linejoin="round"/>
  <path d="M206 350L256 400L306 350" stroke="white" stroke-width="30" stroke-linecap="round" stroke-linejoin="round"/>
</svg>
